<?xml version="1.0" encoding="UTF-8"?>
<svg xmlns="http://www.w3.org/2000/svg" viewBox="0 0 400 280" width="400" height="280" fill="none" role="img" focusable="false" preserveAspectRatio="xMidYMid meet" aria-labelledby="f_AJISTAS_t f_AJISTAS_d"><title id="f_AJISTAS_t">Los Alquimistas del Ajo (Ajo & Ajetes)</title><desc id="f_AJISTAS_d">AROMA Y TEMPERAMENTO · EL DIENTE DORADO - Escudo heráldico culinario</desc><defs><linearGradient id="parchmentBg" x1="0%" y1="0%" x2="100%" y2="100%"><stop offset="0%" stop-color="#FCF9F2" /><stop offset="50%" stop-color="#F5E6BE" /><stop offset="100%" stop-color="#EEDCB0" /></linearGradient><linearGradient id="onionGrad" x1="0%" y1="0%" x2="0%" y2="100%"><stop offset="0%" stop-color="#FDE68A" /><stop offset="45%" stop-color="#D97706" /><stop offset="100%" stop-color="#8D6E63" /></linearGradient><linearGradient id="goldRibbon" x1="0%" y1="0%" x2="100%" y2="0%"><stop offset="0%" stop-color="#FFD54F" /><stop offset="50%" stop-color="#FFB800" /><stop offset="100%" stop-color="#FF8A00" /></linearGradient><filter id="dropSh" x="-10%" y="-10%" width="120%" height="120%"><feDropShadow dx="0" dy="6" stdDeviation="6" flood-color="#000000" flood-opacity="0.35" /></filter><filter id="cardSh" x="-5%" y="-5%" width="110%" height="110%"><feDropShadow dx="0" dy="3" stdDeviation="4" flood-color="#8D6E63" flood-opacity="0.2" /></filter></defs><rect x="8" y="8" width="384" height="264" rx="16" fill="url(#parchmentBg)" stroke="#D8C7A0" stroke-width="2" filter="url(#cardSh)" /><g opacity="0.12" stroke="#8D6E63" stroke-width="0.8"><line x1="8" y1="56" x2="392" y2="56" /><line x1="8" y1="104" x2="392" y2="104" /><line x1="8" y1="152" x2="392" y2="152" /><line x1="8" y1="200" x2="392" y2="200" /></g><g transform="translate(200, 32)"><rect x="-70" y="-14" width="140" height="28" rx="14" fill="#1C1917" stroke="#F5E6BE" stroke-width="1.5" /> <text x="0" y="5" text-anchor="middle" fill="#F5E6BE" font-family="system-ui, -apple-system, sans-serif" font-weight="900" font-size="11" letter-spacing="2">AJISTAS</text> </g><circle cx="200" cy="140" r="68" fill="#1C1917" stroke="#F5E6BE" stroke-width="4" filter="url(#dropSh)" /><circle cx="200" cy="140" r="58" fill="#1F1E1A" /><path d="M268 140 L318 140" stroke="#78350F" stroke-width="12" stroke-linecap="round" /><circle cx="312" cy="140" r="3" fill="#F5E6BE" /><path d="M162 165 Q180 120 188 95" stroke="#65A30D" stroke-width="4" stroke-linecap="round" fill="none" /><path d="M238 165 Q220 120 212 95" stroke="#4D7C0F" stroke-width="4" stroke-linecap="round" fill="none" /><ellipse cx="200" cy="142" rx="28" ry="24" fill="#FEF3C7" stroke="#D97706" stroke-width="2" /><circle cx="200" cy="142" r="7" fill="#FDE68A" /><ellipse cx="186" cy="140" rx="6" ry="10" fill="#FFFBEB" stroke="#D97706" stroke-width="1" /><ellipse cx="214" cy="140" rx="6" ry="10" fill="#FFFBEB" stroke="#D97706" stroke-width="1" /><ellipse cx="200" cy="128" rx="8" ry="5" fill="#FFFBEB" stroke="#D97706" stroke-width="1" /><ellipse cx="200" cy="154" rx="8" ry="5" fill="#FFFBEB" stroke="#D97706" stroke-width="1" /><circle cx="170" cy="130" r="2.5" fill="#FACC15" /><circle cx="228" cy="132" r="3" fill="#FACC15" /><circle cx="198" cy="112" r="2" fill="#FACC15" /><g transform="translate(200, 240)"><path d="M-155 0 L155 0 L145 18 L-145 18 Z" fill="#000000" opacity="0.15" /><path d="M-160 -12 L160 -12 L150 14 L-150 14 Z" fill="url(#goldRibbon)" stroke="#B45309" stroke-width="1.5" /> <text x="0" y="4" text-anchor="middle" fill="#1C1917" font-family="system-ui, -apple-system, sans-serif" font-weight="800" font-size="9" letter-spacing="1">AROMA Y TEMPERAMENTO · EL DIENTE DORADO</text> </g></svg>