<?xml version="1.0" encoding="UTF-8"?>
<svg xmlns="http://www.w3.org/2000/svg" viewBox="0 0 300 220" width="300" height="220" fill="none" role="img" focusable="false" preserveAspectRatio="xMidYMid meet" aria-labelledby="p_natzir_t"><title id="p_natzir_t">Natzir Turrado - Científico de Datos & Ratio Áureo</title><desc>RATIO MATEMÁTICO · Algoritmos Sensoriales</desc><defs><linearGradient id="pParchment" x1="0%" y1="0%" x2="100%" y2="100%"><stop offset="0%" stop-color="#FCF9F2" /><stop offset="60%" stop-color="#F5E6BE" /><stop offset="100%" stop-color="#EAD7A6" /></linearGradient><linearGradient id="pGoldBar" x1="0%" y1="0%" x2="100%" y2="0%"><stop offset="0%" stop-color="#FFD54F" /><stop offset="100%" stop-color="#FFB800" /></linearGradient><filter id="pCardSh" x="-5%" y="-5%" width="110%" height="110%"><feDropShadow dx="0" dy="3" stdDeviation="3" flood-color="#78350F" flood-opacity="0.25" /></filter></defs><rect x="6" y="6" width="288" height="208" rx="14" fill="url(#pParchment)" stroke="#D8C7A0" stroke-width="1.8" filter="url(#pCardSh)" /><g transform="translate(150, 24)"><rect x="-80" y="-12" width="160" height="22" rx="11" fill="#1C1917" stroke="#FFB800" stroke-width="1.5" /> <text x="0" y="3" text-anchor="middle" fill="#FFB800" font-family="system-ui, -apple-system, sans-serif" font-weight="900" font-size="8.5" letter-spacing="1.2">RATIO MATEMÁTICO</text> </g><circle cx="150" cy="95" r="48" fill="#1A1C24" stroke="#FFB800" stroke-width="3" /><path d="M150 95 A 10 10 0 0 1 160 105 A 20 20 0 0 1 140 125 A 35 35 0 0 1 120 75" fill="none" stroke="#FFB800" stroke-width="2" /><circle cx="150" cy="95" r="3" fill="#00A3FF" /><circle cx="160" cy="105" r="3" fill="#00A3FF" /><circle cx="140" cy="125" r="3" fill="#00A3FF" /><circle cx="120" cy="75" r="3" fill="#00A3FF" /> <text x="150" y="162" text-anchor="middle" fill="#1C1917" font-family="system-ui, -apple-system, sans-serif" font-weight="900" font-size="14" letter-spacing="-0.2">Natzir Turrado</text> <text x="150" y="179" text-anchor="middle" fill="#78350F" font-family="system-ui, -apple-system, sans-serif" font-weight="700" font-size="9.5">Científico de Datos & Ratio Áureo</text> <g transform="translate(150, 198)"><rect x="-95" y="-9" width="190" height="18" rx="9" fill="#1C1917" opacity="0.08" /> <text x="0" y="3" text-anchor="middle" fill="#57534E" font-family="system-ui, -apple-system, sans-serif" font-weight="600" font-size="8">Algoritmos Sensoriales</text> </g></svg>